<?xml version="1.0" encoding="UTF-8" standalone="no"?>
<svg
   width="24px"
   height="24px"
   viewBox="0 0 24 24"
   fill="none"
   version="1.1"
   id="svg8"
   sodipodi:docname="menu-hambuger-svgrepo-com.svg"
   inkscape:version="1.1.1 (3bf5ae0d25, 2021-09-20)"
   xmlns:inkscape="http://www.inkscape.org/namespaces/inkscape"
   xmlns:sodipodi="http://sodipodi.sourceforge.net/DTD/sodipodi-0.dtd"
   xmlns="http://www.w3.org/2000/svg"
   xmlns:svg="http://www.w3.org/2000/svg">
  <defs
     id="defs12" />
  <sodipodi:namedview
     id="namedview10"
     pagecolor="#505050"
     bordercolor="#eeeeee"
     borderopacity="1"
     inkscape:pageshadow="0"
     inkscape:pageopacity="0"
     inkscape:pagecheckerboard="0"
     showgrid="false"
     inkscape:zoom="33.833333"
     inkscape:cx="11.985222"
     inkscape:cy="11.955665"
     inkscape:window-width="1920"
     inkscape:window-height="1001"
     inkscape:window-x="-9"
     inkscape:window-y="-9"
     inkscape:window-maximized="1"
     inkscape:current-layer="svg8" />
  <line
     x1="5"
     y1="7"
     x2="19"
     y2="7"
     stroke="black"
     stroke-width="2"
     stroke-linecap="round"
     stroke-linejoin="round"
     id="line2" />
  <line
     x1="5"
     y1="12"
     x2="19"
     y2="12"
     stroke="black"
     stroke-width="2"
     stroke-linecap="round"
     stroke-linejoin="round"
     id="line4" />
  <line
     x1="5"
     y1="17"
     x2="19"
     y2="17"
     stroke="black"
     stroke-width="2"
     stroke-linecap="round"
     stroke-linejoin="round"
     id="line6" />
  <path
     style="fill:#ffffff;stroke-width:0.0295567"
     d="M 4.8021353,17.959846 C 4.2582239,17.842663 3.9114487,17.296011 4.0496847,16.773691 4.132514,16.460724 4.2899438,16.268123 4.5960591,16.10525 L 4.729064,16.034483 H 12 19.270936 l 0.133005,0.07043 c 0.210662,0.111561 0.332755,0.222005 0.433525,0.392164 0.183777,0.310321 0.190818,0.660265 0.01962,0.974822 -0.144876,0.266185 -0.387943,0.437543 -0.703348,0.495849 -0.259991,0.04806 -14.1272772,0.04042 -14.3515977,-0.0079 z"
     id="path88" />
  <path
     style="fill:#ffffff;stroke-width:0.0295567"
     d="M 4.6777123,12.930721 C 4.520466,12.872829 4.324121,12.731139 4.229824,12.60751 4.0054183,12.313299 3.955364,11.9269 4.1005706,11.609727 c 0.093372,-0.203951 0.283424,-0.400514 0.481481,-0.497975 L 4.729064,11.039409 H 12 19.270936 l 0.135238,0.06664 c 0.218311,0.10758 0.371084,0.258603 0.474877,0.469435 0.08276,0.168112 0.09536,0.224182 0.09536,0.424513 0,0.200331 -0.01259,0.256401 -0.09536,0.424513 -0.103793,0.210832 -0.256566,0.361855 -0.474877,0.469435 l -0.135238,0.06664 -7.241379,0.0054 c -6.0833134,0.0045 -7.2590456,-0.0011 -7.3518447,-0.03527 z"
     id="path127" />
  <path
     style="fill:#ffffff;stroke-width:0.0295567"
     d="M 4.743651,7.9528009 C 4.5168539,7.8834409 4.3040974,7.7268036 4.1853647,7.5417747 3.7962261,6.9353548 4.1341555,6.1623473 4.8453298,6.0321157 5.093231,5.9867196 18.908138,5.9868466 19.153733,6.0322473 c 0.315405,0.058306 0.558472,0.2296636 0.703348,0.495849 0.171203,0.3145568 0.164162,0.6645004 -0.01962,0.974822 -0.10077,0.1701586 -0.222863,0.2806026 -0.433525,0.3921633 l -0.133005,0.070436 -7.226601,0.00497 c -3.9746306,0.00273 -7.2599383,-0.00523 -7.300684,-0.017686 z"
     id="path166" />
</svg>
