<?xml version="1.0" encoding="UTF-8" standalone="no"?>
<svg
   width="16px"
   height="16px"
   viewBox="0 0 16 16"
   fill="currentColor"
   class="bi bi-x-lg"
   version="1.1"
   id="svg4"
   sodipodi:docname="x-lg-svgrepo-com.svg"
   inkscape:version="1.1.1 (3bf5ae0d25, 2021-09-20)"
   xmlns:inkscape="http://www.inkscape.org/namespaces/inkscape"
   xmlns:sodipodi="http://sodipodi.sourceforge.net/DTD/sodipodi-0.dtd"
   xmlns="http://www.w3.org/2000/svg"
   xmlns:svg="http://www.w3.org/2000/svg">
  <defs
     id="defs8" />
  <sodipodi:namedview
     id="namedview6"
     pagecolor="#505050"
     bordercolor="#eeeeee"
     borderopacity="1"
     inkscape:pageshadow="0"
     inkscape:pageopacity="0"
     inkscape:pagecheckerboard="0"
     showgrid="false"
     inkscape:zoom="50.75"
     inkscape:cx="7.9901478"
     inkscape:cy="7.9704433"
     inkscape:window-width="1920"
     inkscape:window-height="1001"
     inkscape:window-x="-9"
     inkscape:window-y="-9"
     inkscape:window-maximized="1"
     inkscape:current-layer="svg4" />
  <path
     d="M1.293 1.293a1 1 0 0 1 1.414 0L8 6.586l5.293-5.293a1 1 0 1 1 1.414 1.414L9.414 8l5.293 5.293a1 1 0 0 1-1.414 1.414L8 9.414l-5.293 5.293a1 1 0 0 1-1.414-1.414L6.586 8 1.293 2.707a1 1 0 0 1 0-1.414z"
     id="path2" />
  <path
     style="fill:#ffffff;stroke-width:0.0197044"
     d="M 1.7657601,14.944226 C 1.2668367,14.810048 0.94154447,14.300698 1.0429707,13.812465 c 0.016846,-0.08109 0.058366,-0.205076 0.092265,-0.275519 0.05692,-0.11828 0.2683426,-0.334981 2.7634898,-2.832478 L 6.6005801,8.0000686 3.8901803,5.2857486 C 1.5696673,2.9618794 1.1719965,2.5554666 1.1256688,2.4604646 0.92904604,2.0572591 0.99551494,1.6195818 1.3004926,1.3093038 1.6030857,1.0014519 2.0412278,0.92654744 2.4334975,1.1156062 2.5777074,1.1851098 2.6467948,1.2522868 5.2907375,3.893839 L 8.0001941,6.6008459 10.660196,3.9387344 c 1.463,-1.4641613 2.71121,-2.7005224 2.773799,-2.7474691 0.162612,-0.1219722 0.301459,-0.169561 0.52949,-0.1814782 0.15641,-0.00817 0.214154,-0.00262 0.325941,0.031331 0.345511,0.1049456 0.601631,0.3798182 0.685536,0.7357303 0.03723,0.1579089 0.03713,0.2691009 -3.76e-4,0.4282145 -0.06893,0.292427 0.07977,0.1325021 -2.864509,3.0806512 L 9.3993505,7.9999994 12.099967,10.704433 c 2.057507,2.060415 2.712802,2.727895 2.751786,2.802956 0.16322,0.314266 0.159882,0.676041 -0.009,0.972822 -0.130325,0.229056 -0.397468,0.421831 -0.660261,0.476455 -0.238503,0.04957 -0.531644,-0.0098 -0.74409,-0.150784 -0.05419,-0.03595 -1.299941,-1.267159 -2.768342,-2.736014 L 8.0002629,9.3992233 5.2907718,12.104844 C 2.923724,14.468511 2.567158,14.81713 2.4695378,14.863205 2.2342529,14.974255 1.9843825,15.00302 1.7657601,14.944226 Z"
     id="path84" />
</svg>
